<svg width="22" height="26" viewBox="0 0 22 26" fill="none" xmlns="http://www.w3.org/2000/svg">
<path fill-rule="evenodd" clip-rule="evenodd" d="M15.8333 25.5H12.5033H9.16994C9.16994 25.5 9.17911 23.5233 9.16994 22.1667C4.60911 23.1483 3.33661 19.6667 3.33661 19.6667C2.50327 18 1.66994 17.1667 1.66994 17.1667C0.00327331 16.1767 1.66994 16.3333 1.66994 16.3333C3.33661 16.3333 4.16994 18 4.16994 18C5.63244 20.4842 8.23494 20.0842 9.16994 19.6667C9.16994 18.8333 9.53494 17.5733 10.0033 17.1667C6.36327 16.7567 3.33327 14.6667 3.33327 10.5C3.33327 6.33333 4.16994 5.5 5.00327 4.66667C4.83494 4.25583 4.13744 2.7375 5.02911 0.5C5.02911 0.5 6.66661 0.5 8.33327 3C9.15911 2.17417 11.6666 2.16667 12.5008 2.16667C13.3333 2.16667 15.8408 2.17417 16.6666 3C18.3333 0.5 19.9741 0.5 19.9741 0.5C20.8658 2.7375 20.1683 4.25583 19.9999 4.66667C20.8333 5.5 21.6666 6.33333 21.6666 10.5C21.6666 14.6667 18.6399 16.7567 14.9999 17.1667C15.4683 17.5733 15.8333 19.0083 15.8333 19.6667V25.5Z" fill="#CDCDCD"/>
</svg>
