<svg width="176" height="60" viewBox="0 0 176 60" fill="none" xmlns="http://www.w3.org/2000/svg">
<path d="M175.059 25.1098C173.28 21.1284 170.364 18.142 167.608 15.5305L168.398 15.6476L172.452 16.2621L166.637 3.56966L165.448 3.38781C161.991 2.8715 158.49 2.39281 155.024 2.01028C154.525 1.94776 154.02 1.94776 153.521 2.01028L153.537 1.8333L151.36 1.61382C148.355 1.3149 146.806 1.17833 143.819 0.958847L141.657 0.798589L141.443 2.93072C141.336 3.96404 141.247 4.82246 141.161 5.62306C140.091 4.32009 139.054 3.04499 137.648 1.31908L137.017 0.544963L136.021 0.480163C133.038 0.340808 131.494 0.28855 128.512 0.241169L123.729 0.143621L124.304 0.861299C122.631 0.270586 120.866 -0.0196516 119.09 0.00426557C117.243 -0.0139668 115.419 0.411879 113.775 1.24522C112.226 2.0623 110.963 3.32324 110.151 4.86288C110.018 5.10187 109.909 5.36525 109.788 5.62585C109.114 4.44149 108.19 3.41483 107.078 2.61578C105.166 1.37145 102.877 0.823641 100.602 1.06615C96.9028 1.35531 93.1118 1.74063 89.1496 2.22558V2.21374L87.0186 2.49245C85.4262 2.70148 84.3434 2.84641 83.0974 3.02827L81.6837 3.22406L80.9375 3.35088L78.7628 3.68115L79.3063 7.43049C78.7769 6.72954 78.2116 5.97423 77.5695 5.11372L76.7529 4.01839L75.3984 4.25459C72.9992 4.67266 71.7573 4.9005 69.3581 5.36943L67.3728 5.75963L67.791 9.89429C66.9692 9.13512 66.021 8.52223 64.9884 8.08268C62.7077 7.16991 60.1868 7.02617 57.8153 7.67367C55.9471 8.11471 54.1895 8.92842 52.6501 10.065C51.1306 11.2024 49.8502 12.6225 48.8808 14.2457C48.4047 15.039 47.9934 15.8687 47.6509 16.7269C46.6996 15.3047 45.3312 14.205 43.7297 13.5754C41.4399 12.7762 38.9382 12.805 36.6678 13.6569C34.8164 14.2584 33.0954 15.1983 31.5941 16.4279C30.5515 17.2862 29.6163 18.2646 28.8084 19.3426L28.9703 16.4732L25.7763 17.6689C23.4643 18.5273 22.2732 18.9844 19.9781 19.8986L19.0481 20.2672L18.7102 21.2023C17.8983 23.4677 17.0697 25.7529 16.2244 28.0578C15.9491 27.0203 15.6612 25.9055 15.3134 24.5593L14.6707 22.0509L12.2771 23.0766C9.152 24.4116 5.99174 25.8344 2.9209 27.2997L1.8304 27.8167L0 41.6303L3.70163 39.8772L3.76218 39.8507L1.3193 59.9966L4.94349 58.3445C7.42016 57.2137 8.63526 56.6723 11.1331 55.5993L12.3214 55.085L12.4692 53.6559L12.829 54.8732L16.3638 53.41V53.3884L19.4804 52.1523C21.9979 51.1552 23.2299 50.6814 25.7622 49.7422L27.1202 49.2377L27.3617 44.9741C28.1683 45.6992 29.1282 46.2372 30.1713 46.5488C31.0496 46.8099 31.9626 46.9389 32.8796 46.9314C34.4673 46.903 36.0404 46.6253 37.5401 46.1085C40.1257 45.2941 42.4991 43.9279 44.4928 42.1062C46.2645 40.4516 47.6569 38.44 48.576 36.2073C49.6442 37.7525 51.1845 38.9183 52.9711 39.5337C54.1474 39.9312 55.3833 40.1284 56.6262 40.1169C57.93 40.1058 59.2278 39.9404 60.4919 39.6243C63.0865 39.0453 65.5016 37.8549 67.5319 36.1544C68.553 35.2759 69.4351 34.2506 70.1487 33.1129L70.5331 36.9076L72.9372 36.4296C75.5589 35.9154 76.8416 35.6785 79.4605 35.2339L81.5429 34.873L81.0135 30.5927C81.7175 31.4511 82.4919 32.3813 83.4029 33.4815L84.2097 34.4382L85.4614 34.2494C88.0972 33.8473 89.3876 33.6634 92.0374 33.3192L92.4268 33.269L92.8808 33.2119C97.1161 32.674 101.422 32.2218 105.686 31.8657C107.448 31.7781 109.191 31.4671 110.873 30.9404C111.726 30.6621 112.515 30.2192 113.195 29.6373C113.874 29.0553 114.43 28.3458 114.83 27.5499C114.937 27.3388 115.031 27.1217 115.112 26.8998C116.298 28.0478 117.668 28.994 119.166 29.7001C121.516 30.7866 124.084 31.3344 126.678 31.3027H126.959C129.904 31.2623 132.32 30.6115 134.14 29.3685C135.137 28.6786 135.971 27.7824 136.583 26.7419C137.196 25.7014 137.572 24.5416 137.687 23.3427C137.928 20.8575 137.643 18.3497 136.848 15.9799C138.11 17.4752 139.38 18.9705 140.659 20.4658L144.45 31.1208L145.943 31.1905C148.649 31.3243 149.97 31.4058 152.684 31.5995L156.146 31.8385L151.471 19.5119C151.769 17.5465 152.044 15.5763 152.297 13.6011C153.835 15.9872 155.699 18.151 157.837 20.031L157.093 19.9613L153.468 19.6171L158.47 32.0657L159.826 32.1897C163.469 32.529 167.166 32.945 170.808 33.4286L171.049 33.462L171.291 33.4383C173.685 33.2258 174.833 32.1019 175.374 31.1975C176.303 29.6527 176.197 27.6586 175.059 25.1098Z" fill="#2F0A30"/>
<path d="M4.0033 56.3482C4.81854 49.6225 5.63353 42.8961 6.4483 36.1689C4.96215 36.8483 4.22084 37.1925 2.73962 37.8928C3.19863 34.4493 3.42602 32.7276 3.88503 29.2841C6.94509 27.8255 10.0352 26.4289 13.1553 25.0944C14.2014 29.1594 14.7569 31.1988 15.9361 35.245C17.5821 30.8196 19.2081 26.3799 20.8141 21.9262C23.1092 21.0148 24.2637 20.5751 26.5693 19.7167L24.9818 47.672C22.4474 48.614 21.1802 49.1066 18.6564 50.0989C19.0161 45.4165 19.1949 43.0761 19.5526 38.393C17.9273 42.8566 16.2804 47.3043 14.6119 51.7363L14.2542 51.8896C13.0659 47.8483 12.5027 45.8227 11.4382 41.7529L10.2302 53.5897C7.73098 54.6606 6.48913 55.2125 4.0033 56.3482Z" fill="url(#paint0_linear_2_22)"/>
<path d="M48.0116 26.5827C48.1131 29.3015 47.7104 32.0157 46.8233 34.5907C46.0369 36.836 44.716 38.8609 42.9724 40.4945C41.2158 42.0975 39.1249 43.2991 36.8476 44.0146C34.4801 44.7846 32.4652 44.9379 30.827 44.4404C29.9995 44.1784 29.2456 43.728 28.6259 43.1253C28.0061 42.5227 27.5378 41.7847 27.2584 40.9704C26.5164 39.1484 26.2461 36.6922 26.4136 33.6104C26.5167 31.4406 26.8626 29.2888 27.445 27.1945C27.9515 25.3712 28.7048 23.6241 29.6844 22.0007C30.5718 20.5332 31.7011 19.223 33.0256 18.1246C34.311 17.0689 35.7865 16.2633 37.3742 15.7499C39.1536 15.0603 41.1223 15.0171 42.9309 15.628C43.7583 15.9742 44.5085 16.4787 45.1386 17.1124C45.7688 17.7461 46.2664 18.4966 46.6029 19.3209C47.5721 21.6199 48.0516 24.092 48.0116 26.5827ZM33.0516 31.3284C32.943 32.8147 33.1733 34.306 33.7254 35.6923C34.2379 36.8232 35.3101 37.1082 36.9462 36.5772C38.0818 36.2552 39.0802 35.5751 39.7896 34.6402C40.3886 33.8354 40.7943 32.9061 40.9759 31.9228C41.1695 30.8393 41.2778 29.7425 41.2997 28.6424C41.3268 27.1525 41.039 25.6735 40.4549 24.3001C39.9424 23.1497 38.8554 22.8368 37.1933 23.3768C34.5709 24.2325 33.1939 26.9032 33.0516 31.3284Z" fill="url(#paint1_linear_2_22)"/>
<path d="M70.2339 21.2286C70.5512 23.8312 70.3393 26.4703 69.6109 28.9907C68.975 31.1192 67.7431 33.026 66.0578 34.4903C64.2966 35.9606 62.2019 36.9869 59.9527 37.4816C57.9105 38.0714 55.7392 38.0615 53.7026 37.453C52.8215 37.1397 52.0134 36.6535 51.3268 36.0236C50.6402 35.3937 50.0891 34.6331 49.7067 33.7873C48.7004 31.4939 48.206 29.0127 48.2571 26.513C48.1941 24.4244 48.3921 22.3361 48.8464 20.2956C49.2289 18.5619 49.8854 16.8987 50.7915 15.3673C51.6116 13.9891 52.6967 12.7835 53.9856 11.8187C55.2816 10.8632 56.7615 10.1805 58.3342 9.81264C60.2385 9.27732 62.2683 9.38071 64.107 10.1067C65.8815 10.9116 67.329 12.2867 68.2141 14.0086C69.378 16.2537 70.0654 18.7108 70.2339 21.2286ZM55.0275 24.7675C55.0428 26.2679 55.3959 27.7461 56.061 29.0945C56.6819 30.24 57.8245 30.6009 59.4895 30.2017C60.6048 29.9995 61.6066 29.3999 62.3055 28.5162C62.8695 27.7625 63.2228 26.8749 63.3298 25.943C63.4498 24.8834 63.479 23.8156 63.4171 22.7511C63.32 21.244 62.9087 19.7731 62.209 18.4311C61.5881 17.2667 60.4335 16.8745 58.7418 17.2835C56.0722 17.9363 54.8424 20.4399 55.0261 24.7682L55.0275 24.7675Z" fill="url(#paint2_linear_2_22)"/>
<path d="M72.4926 34.2709L69.7864 7.52731C72.18 7.04932 73.3768 6.8361 75.7754 6.42013C78.4646 10.0239 79.8536 11.8313 82.7119 15.4538L81.2623 5.52547C83.6785 5.15966 84.8865 4.98756 87.3026 4.67401L91.7484 31.1354C89.0908 31.4796 87.7666 31.6685 85.1188 32.0705C82.1233 28.4696 80.6689 26.6761 77.8416 23.096C78.3245 27.0795 78.5808 29.0744 79.0764 33.0558C76.4392 33.5128 75.1206 33.7567 72.4926 34.2709Z" fill="url(#paint3_linear_2_22)"/>
<path d="M92.5965 31.0281L89.4222 12.4535C87.8347 12.6542 87.0399 12.7622 85.4552 12.9844L84.2225 5.09276C89.7186 4.32631 95.2372 3.69364 100.777 3.26373C102.536 3.05919 104.311 3.46851 105.797 4.42107C107.336 5.63096 108.438 7.3012 108.938 9.18213C109.449 10.5133 109.514 11.9723 109.122 13.3426C108.617 14.4985 107.716 15.4404 106.577 16.0015L106.594 16.0711C107.354 16.1462 108.092 16.3645 108.769 16.7143C109.455 17.0578 110.086 17.4984 110.644 18.0221C111.198 18.5449 111.675 19.142 112.062 19.7961C112.44 20.4134 112.724 21.0819 112.907 21.7805C113.421 23.8527 113.397 25.447 112.837 26.5632C112.567 27.1048 112.19 27.587 111.727 27.9807C111.265 28.3743 110.727 28.6715 110.145 28.8542C108.641 29.3186 107.083 29.5925 105.509 29.6694C101.191 30.0313 96.8872 30.4842 92.5965 31.0281ZM95.7371 10.2245C96.049 11.8271 96.2059 12.6158 96.5199 14.2247C98.3947 14.031 99.3359 13.946 101.214 13.7802C101.473 13.7586 101.697 13.5412 101.913 13.1531C102.133 12.6757 102.18 12.1376 102.046 11.6299C101.948 11.0573 101.651 10.5368 101.205 10.159C100.968 9.94648 100.668 9.81568 100.35 9.78624C98.5038 9.95346 97.5809 10.0447 95.7378 10.2308L95.7371 10.2245ZM97.6484 19.9975C98.0279 21.9485 98.2187 22.9239 98.6003 24.8749C100.388 24.691 101.282 24.6046 103.072 24.4471C103.426 24.4456 103.776 24.3715 104.099 24.2295C104.423 24.0875 104.713 23.8807 104.952 23.6221C105.173 23.3786 105.332 23.0865 105.416 22.77C105.5 22.4534 105.506 22.1216 105.435 21.8021C105.386 21.4513 105.263 21.1145 105.074 20.8134C104.886 20.5123 104.636 20.2536 104.34 20.0539C103.654 19.6398 102.846 19.4711 102.05 19.5759C100.281 19.7383 99.4042 19.8247 97.6478 20.0037L97.6484 19.9975Z" fill="url(#paint4_linear_2_22)"/>
<path d="M134.431 15.7388C135.382 18.6081 135.738 21.0447 135.467 23.0486C135.389 23.9414 135.116 24.8067 134.666 25.5843C134.216 26.3619 133.601 27.0331 132.862 27.5512C131.393 28.558 129.403 29.0625 126.919 29.096C124.573 29.1625 122.243 28.6885 120.113 27.7115C118.033 26.7204 116.25 25.2096 114.94 23.3281C113.431 21.1149 112.354 18.641 111.766 16.0349C111.254 14.1342 111.015 12.1716 111.056 10.205C111.075 8.70986 111.436 7.23847 112.112 5.90101C112.717 4.74652 113.662 3.80092 114.821 3.18916C116.152 2.52449 117.625 2.18814 119.116 2.2088C121.317 2.17331 123.489 2.70314 125.421 3.74658C127.495 4.88882 129.291 6.46742 130.681 8.37108C132.327 10.6087 133.592 13.0971 134.428 15.7381L134.431 15.7388ZM118.78 15.8294C119.188 17.404 119.892 18.8885 120.855 20.2051C121.311 20.8104 121.912 21.2928 122.605 21.6082C123.298 21.9236 124.06 22.0619 124.82 22.0105C126.145 21.9916 127.041 21.6621 127.5 21.0036C127.959 20.3492 128.155 19.5484 128.048 18.7586C127.937 17.7283 127.734 16.7096 127.442 15.7144C126.95 14.1302 126.188 12.6407 125.189 11.3101C124.734 10.6918 124.127 10.1974 123.427 9.87305C122.727 9.54865 121.955 9.4047 121.183 9.45456C118.427 9.49288 117.63 11.6376 118.78 15.8294Z" fill="url(#paint5_linear_2_22)"/>
<path d="M151.124 3.80577C150.64 9.16212 149.99 14.4755 149.174 19.7459L152.829 29.399C150.111 29.2053 148.753 29.1238 146.041 28.99L142.61 19.3487C137.843 13.7694 133.126 8.13182 128.46 2.43591C131.436 2.49584 132.924 2.546 135.906 2.67491C138.59 6.00131 139.955 7.66521 142.735 11.0014C143.15 7.84986 143.334 6.28142 143.655 3.14593C146.652 3.37308 148.135 3.50477 151.124 3.80577Z" fill="url(#paint6_linear_2_22)"/>
<path d="M168.731 13.4714C166.83 13.1843 165.878 13.0485 163.976 12.7921C161.619 12.3858 161.643 13.2101 164.09 15.26C167.328 18.3258 171.006 21.4774 173.03 26.0015C174.48 29.2276 173.83 31.0016 171.098 31.2455C167.411 30.7577 163.721 30.3417 160.028 29.9975L156.869 22.1491C158.575 22.3093 159.428 22.388 161.134 22.5845C163.82 22.9699 163.733 22.0487 160.928 19.8058C157.657 17.0347 153.808 13.3139 152.448 8.63371C151.546 5.52539 152.346 3.92281 154.76 4.19804C158.211 4.58869 161.661 5.04392 165.108 5.56372L168.731 13.4714Z" fill="url(#paint7_linear_2_22)"/>
<g style="mix-blend-mode:overlay">
<g style="mix-blend-mode:overlay">
<path d="M3.53013 56.9942L5.97512 36.8121C4.87618 37.3165 4.16302 37.6482 2.91131 38.2467L2.25659 38.5575L3.52379 29.0312L3.71458 28.9406C6.77698 27.4822 9.90203 26.0713 12.9996 24.7418L13.422 24.5628L13.5354 25.0052C14.4801 28.6898 15.0138 30.67 15.9804 34.0034C17.4905 29.9384 18.9907 25.8302 20.443 21.8098L20.5036 21.6447L20.6676 21.5799C22.9774 20.6643 24.1081 20.2309 26.4298 19.3683L26.993 19.1593L25.3647 47.9521L25.1232 48.0406C22.5769 48.9973 21.3371 49.4613 18.8055 50.4654L18.2184 50.7044L18.9435 41.2087C17.6341 44.7456 16.3127 48.3228 14.9765 51.8784L14.9187 52.0366L14.0106 52.4122L13.8874 51.9941C12.9208 48.6872 12.3653 46.7523 11.6212 43.9408L10.606 53.8475L10.3948 53.9381C7.88437 55.0216 6.66363 55.5644 4.16866 56.7022L3.53013 56.9942ZM6.90933 35.5237L4.47419 55.7177C6.4989 54.7972 7.70696 54.2614 9.86683 53.3263L11.2748 39.5553L11.8331 41.6456C12.8356 45.4904 13.3819 47.4776 14.4379 51.0813C16.0374 46.8059 17.6291 42.4943 19.1779 38.2607L20.1445 35.5802L19.0864 49.5003C21.1717 48.6754 22.3987 48.2043 24.5952 47.3891L26.1342 20.2846C24.2334 21.0022 23.1189 21.4231 21.1161 22.2167C19.5482 26.5618 17.9269 30.9877 16.2838 35.3683L15.8705 36.4832L15.5369 35.3426C14.3964 31.4211 13.8473 29.4242 12.8793 25.6226C9.98018 26.8663 7.0811 28.179 4.23483 29.5322L3.22459 37.2392C4.30242 36.7299 5.01979 36.4031 6.28347 35.8213L6.90933 35.5237Z" fill="#FFFDFF"/>
</g>
<g style="mix-blend-mode:overlay">
<path d="M32.8872 45.1121C32.1512 45.1189 31.4183 45.0175 30.7125 44.8111C29.8295 44.5313 29.0246 44.0514 28.362 43.4095C27.6993 42.7677 27.1971 41.9817 26.8954 41.114C26.1344 39.2417 25.8493 36.7814 26.0232 33.5888C26.1244 31.3903 26.472 29.2098 27.0595 27.0872C27.5756 25.2282 28.3436 23.4468 29.3425 21.7917C30.2517 20.2879 31.4089 18.9455 32.7661 17.8201C34.0921 16.7353 35.6114 15.9056 37.2456 15.3737C39.1117 14.6596 41.1723 14.6189 43.0656 15.2587C44.8308 16.0024 46.2292 17.4042 46.958 19.1607C47.9491 21.5071 48.4425 24.03 48.4075 26.573C48.5043 29.3384 48.095 32.0984 47.1995 34.7197C46.3903 37.0238 45.0351 39.1025 43.2472 40.7816C41.4449 42.4232 39.3005 43.6534 36.9654 44.3853C35.653 44.8379 34.2767 45.0831 32.8872 45.1121ZM40.5291 15.5855C39.4964 15.6009 38.4729 15.7792 37.497 16.1137C35.9558 16.6114 34.5229 17.3914 33.273 18.413C31.9815 19.4823 30.8806 20.7587 30.0163 22.1889C29.0558 23.7846 28.317 25.5011 27.8198 27.292C27.2455 29.359 26.9036 31.4824 26.8004 33.6236C26.6364 36.656 26.9116 39.0759 27.6191 40.8164C27.8721 41.5789 28.305 42.2707 28.8818 42.8346C29.4587 43.3985 30.163 43.8183 30.9364 44.0592C32.4704 44.5233 34.4226 44.3846 36.7205 43.6363C38.9433 42.938 40.9844 41.7659 42.7002 40.2026C44.3958 38.6091 45.6814 36.6371 46.4497 34.4514C47.3175 31.92 47.713 29.2535 47.617 26.582C47.6557 24.1468 47.1887 21.7297 46.2449 19.4805C45.6038 17.9075 44.3613 16.6484 42.7875 15.9771C42.0662 15.7075 41.3001 15.5747 40.5291 15.5855ZM35.5398 37.2211C35.0784 37.2451 34.6209 37.126 34.2311 36.8805C33.8413 36.6349 33.5386 36.2751 33.3652 35.8512C32.7905 34.4089 32.5488 32.8577 32.6577 31.311C32.8076 26.7033 34.2931 23.8981 37.0717 23.0041C39.4083 22.2411 40.3989 23.1999 40.8163 24.1377C41.4209 25.5632 41.7196 27.0974 41.6935 28.6431C41.6718 29.7648 41.5612 30.8831 41.3626 31.9876C41.1686 33.025 40.7407 34.0058 40.1109 34.8569C39.3533 35.8602 38.285 36.5908 37.0689 36.9375C36.5777 37.1119 36.0615 37.2076 35.5398 37.2211ZM38.6079 23.5072C38.1677 23.5192 37.7322 23.5998 37.3174 23.7462C34.8823 24.5398 33.5799 27.0907 33.4518 31.341C33.348 32.768 33.5666 34.1999 34.0917 35.5328C34.3578 36.1188 34.9302 36.8288 36.8317 36.2073C37.8879 35.9064 38.8192 35.2789 39.4893 34.4166C40.0453 33.6571 40.4212 32.7832 40.5889 31.8601C40.781 30.7973 40.8876 29.7212 40.9078 28.6417C40.938 27.208 40.6649 25.784 40.106 24.461C39.995 24.1625 39.7887 23.9078 39.5184 23.7357C39.2481 23.5636 38.9284 23.4834 38.6079 23.5072Z" fill="#FFFDFF"/>
</g>
<g style="mix-blend-mode:overlay">
<path d="M56.6243 38.2976C55.5879 38.3103 54.5569 38.1487 53.5753 37.8196C52.6469 37.4886 51.7951 36.9764 51.0705 36.3134C50.3459 35.6505 49.7632 34.8502 49.3569 33.9602C48.4023 32.0399 47.9313 29.6402 47.8686 26.5214C47.8086 24.4032 48.0098 22.2856 48.4677 20.2156C48.862 18.4419 49.5345 16.7402 50.4608 15.1723C51.3069 13.7512 52.4265 12.5081 53.7562 11.5136C55.0972 10.5263 56.6281 9.82089 58.2547 9.44067C60.2421 8.8877 62.3582 8.99864 64.2754 9.75631C66.1279 10.5911 67.6386 12.0245 68.5592 13.8213C69.7411 16.1138 70.4436 18.6187 70.6247 21.1862C70.9438 23.8403 70.7263 26.5308 69.9848 29.1009C69.3247 31.2956 68.0547 33.2626 66.3198 34.7775C64.5046 36.2852 62.3504 37.3397 60.038 37.8524C58.9219 38.1335 57.7759 38.2821 56.6243 38.2948V38.2976ZM60.9419 9.87824C60.0986 9.8841 59.2591 9.99007 58.4413 10.1939C56.9182 10.5499 55.4845 11.2097 54.2279 12.133C52.9792 13.0681 51.927 14.2354 51.1303 15.5695C50.2466 17.0676 49.6053 18.6934 49.2295 20.3877C48.7849 22.3957 48.5901 24.4499 48.6494 26.5047C48.5993 28.9462 49.0794 31.3698 50.0574 33.6118C50.4157 34.4136 50.9351 35.1348 51.5839 35.7317C52.2328 36.3286 52.9974 36.7886 53.8315 37.0838C55.7967 37.6668 57.8907 37.6726 59.8592 37.1006C62.0456 36.6144 64.0827 35.6175 65.8002 34.1929C67.4256 32.7736 68.6138 30.9295 69.2287 28.8723C69.9415 26.4022 70.1486 23.816 69.8377 21.2656C69.6686 18.8022 68.9981 16.398 67.8665 14.1976C67.0297 12.5516 65.6531 11.2356 63.9621 10.4649C63.006 10.0679 61.978 9.8683 60.9412 9.87824H60.9419ZM58.2864 30.746C57.7607 30.7773 57.2373 30.6549 56.7815 30.3938C56.3257 30.1327 55.9576 29.7446 55.7232 29.2779C55.0304 27.8782 54.6608 26.3435 54.6411 24.7851C54.4433 20.2421 55.7936 17.5943 58.6539 16.9059C60.9926 16.3443 62.0704 17.324 62.5632 18.25C63.2856 19.6388 63.7108 21.1603 63.8121 22.7191C63.8772 23.8061 63.848 24.8966 63.7248 25.9786C63.6087 26.9767 63.2306 27.9273 62.628 28.7358C61.8736 29.6944 60.7922 30.3481 59.586 30.5746C59.1603 30.6827 58.7231 30.7405 58.2836 30.7467L58.2864 30.746ZM59.9387 17.5156C59.5678 17.5204 59.1989 17.5693 58.8398 17.6612C56.3948 18.2493 55.2444 20.6358 55.4233 24.7509C55.4402 26.1923 55.7784 27.6122 56.4138 28.9093C56.9404 29.8799 57.9189 30.1788 59.4023 29.8227C60.4237 29.6386 61.343 29.0939 61.9895 28.2898C62.516 27.5904 62.8454 26.7652 62.9441 25.8985C63.0634 24.8612 63.0926 23.8157 63.0314 22.7735C62.9357 21.3217 62.5401 19.9047 61.8691 18.6102C61.6904 18.2609 61.412 17.9712 61.0685 17.777C60.7249 17.5828 60.3314 17.4926 59.9366 17.5177L59.9387 17.5156Z" fill="#FFFDFF"/>
</g>
<g style="mix-blend-mode:overlay">
<path d="M72.1441 34.7343L69.3611 7.21164L69.7131 7.14196C72.1173 6.66398 73.2937 6.45355 75.7098 6.03479L75.9513 5.99438L76.0963 6.18808C78.4857 9.39325 79.8275 11.1449 82.1197 14.0616L80.8342 5.20005L81.2186 5.14013C83.6348 4.77154 84.821 4.60431 87.2589 4.28867L87.6651 4.23572C92.2799 3.64276 96.5658 3.19543 100.753 2.86795C102.603 2.66022 104.469 3.09464 106.032 4.09706C107.634 5.36358 108.787 7.10114 109.326 9.05879C109.862 10.4724 109.925 12.0192 109.505 13.4708C109.109 14.4343 108.431 15.2591 107.559 15.8398C108.043 15.962 108.512 16.1377 108.956 16.3638C109.674 16.7262 110.337 17.1885 110.922 17.7364C111.5 18.2899 111.998 18.9199 112.401 19.6087C112.798 20.2585 113.096 20.9629 113.285 21.699C113.829 23.8897 113.798 25.5417 113.189 26.7443C112.897 27.3314 112.488 27.8541 111.988 28.2814C111.487 28.7087 110.904 29.0317 110.275 29.2311C108.738 29.709 107.146 29.99 105.537 30.0673C101.253 30.4261 96.9164 30.8825 92.6502 31.4232L92.2756 31.4713L89.1034 12.889H89.0802L92.2017 31.4713L91.7983 31.5214C89.1407 31.8698 87.8313 32.0524 85.1807 32.4565L84.9611 32.4899L84.8203 32.3199C82.119 29.073 80.6913 27.3199 78.4083 24.429L79.5149 33.3672L79.1474 33.432C76.4898 33.8912 75.2093 34.1288 72.5714 34.6465L72.1441 34.7343ZM70.2109 7.83874L72.8368 33.8076C75.084 33.3679 76.3638 33.1331 78.6349 32.7366L77.2797 21.7631L78.1499 22.8654C80.9258 26.3855 82.3535 28.1449 85.2793 31.665C87.6588 31.3012 88.9542 31.1201 91.2929 30.8135L88.1833 12.2222L89.756 12.0215L92.9304 30.5961C97.084 30.0721 101.308 29.6394 105.481 29.2834C107.024 29.2087 108.55 28.9421 110.026 28.4898C110.559 28.3242 111.053 28.0526 111.476 27.6917C111.9 27.3307 112.245 26.8879 112.49 26.3904C113.006 25.3717 113.019 23.8534 112.528 21.876C112.356 21.215 112.086 20.5825 111.729 19.9989C111.359 19.3766 110.905 18.8078 110.378 18.3085C109.848 17.8099 109.247 17.3903 108.595 17.0626C107.964 16.7378 107.276 16.5342 106.568 16.4627L106.287 16.4362L106.142 15.8092L106.383 15.6656C107.441 15.1474 108.281 14.2771 108.756 13.2074C109.108 11.9174 109.041 10.5502 108.565 9.29988C108.084 7.50335 107.037 5.90561 105.575 4.73948C104.16 3.84222 102.475 3.45786 100.806 3.65182C96.5116 3.98627 92.1081 4.44823 87.3596 5.06488L86.99 5.11296C84.9315 5.38052 83.765 5.54565 81.7255 5.85432L83.318 16.8536L82.4098 15.706C79.5755 12.119 78.2104 10.3409 75.6112 6.85698C73.4732 7.21582 72.306 7.43113 70.2165 7.83735L70.2109 7.83874ZM98.2808 25.2943L97.1762 19.6505L97.6063 19.6101C99.3748 19.4261 100.237 19.3446 102.006 19.192C102.889 19.0794 103.785 19.2684 104.545 19.7278C104.888 19.9566 105.179 20.2539 105.398 20.6006C105.618 20.9473 105.762 21.3357 105.821 21.7408C105.906 22.1184 105.899 22.5105 105.8 22.8847C105.701 23.259 105.514 23.6046 105.254 23.8931C104.981 24.1912 104.648 24.43 104.278 24.5947C103.907 24.7593 103.505 24.8462 103.099 24.8498C101.326 25.0052 100.441 25.0888 98.6511 25.2755L98.2808 25.2943ZM98.1118 20.3375L98.9165 24.4485C100.484 24.2882 101.361 24.2095 103.036 24.059C103.34 24.0608 103.641 23.9994 103.92 23.8786C104.199 23.7579 104.449 23.5805 104.655 23.358C104.834 23.158 104.962 22.9183 105.029 22.6591C105.095 22.3999 105.098 22.1287 105.036 21.8683C104.997 21.5728 104.896 21.2887 104.739 21.034C104.583 20.7792 104.375 20.5594 104.128 20.3884C103.515 20.0255 102.795 19.8796 102.087 19.9745C100.458 20.1138 99.6008 20.1967 98.1125 20.35L98.1118 20.3375ZM96.1983 14.6441L95.2684 9.8782L95.6907 9.835C97.5465 9.64339 98.4525 9.55629 100.31 9.39533C100.726 9.40746 101.123 9.5661 101.431 9.84266C101.955 10.2741 102.306 10.8761 102.422 11.5407C102.58 12.1378 102.521 12.771 102.255 13.3293C102.174 13.5437 102.038 13.7335 101.861 13.8801C101.683 14.0267 101.47 14.125 101.242 14.1655C99.3558 14.3278 98.4349 14.4045 96.5531 14.61L96.1983 14.6441ZM96.1983 10.5645L96.8319 13.7976C98.4842 13.6275 99.4072 13.5418 101.181 13.3886C101.292 13.3886 101.434 13.2234 101.567 12.9705C101.743 12.5733 101.777 12.1289 101.663 11.71C101.583 11.2315 101.341 10.7939 100.978 10.4684C100.555 10.1597 100.398 10.1695 100.391 10.1695C98.6827 10.3297 97.7816 10.4133 96.2061 10.5757L96.1983 10.5645Z" fill="#FFFDFF"/>
</g>
<g style="mix-blend-mode:overlay">
<path d="M126.669 29.4889C124.347 29.5148 122.048 29.0245 119.943 28.0543C117.808 27.0307 115.976 25.477 114.628 23.5448C113.094 21.2936 111.996 18.7799 111.389 16.1318C110.868 14.195 110.624 12.1956 110.664 10.1918C110.687 8.63772 111.062 7.10862 111.763 5.71777C112.409 4.49749 113.411 3.49773 114.638 2.84845C116.021 2.15304 117.554 1.80013 119.105 1.82001C121.372 1.78789 123.609 2.33302 125.602 3.40308C127.725 4.57609 129.564 6.19438 130.99 8.14463C132.664 10.4158 133.954 12.9411 134.809 15.6217C135.776 18.5963 136.131 21.0475 135.853 23.1037C135.768 24.0514 135.477 24.9695 134.999 25.7951C134.521 26.6207 133.869 27.3341 133.086 27.8864C131.237 29.0139 129.093 29.5747 126.923 29.498L126.669 29.4889ZM119.298 2.59343H119.126C117.701 2.57063 116.292 2.89055 115.019 3.52571C113.928 4.10341 113.038 4.99244 112.464 6.0773C111.82 7.36611 111.475 8.78117 111.455 10.2189C111.418 12.15 111.653 14.0767 112.153 15.9436C112.735 18.5006 113.792 20.9283 115.27 23.103C116.543 24.9277 118.273 26.3943 120.29 27.3596C122.364 28.3058 124.63 28.7632 126.913 28.696C128.926 28.7745 130.919 28.2613 132.638 27.2209C133.331 26.7327 133.907 26.1013 134.329 25.3705C134.75 24.6397 135.006 23.827 135.078 22.9887C135.344 21.09 134.991 18.6847 134.059 15.851C133.233 13.2553 131.986 10.8097 130.367 8.61008C129.011 6.74965 127.261 5.20546 125.238 4.08592C123.415 3.10457 121.373 2.59141 119.298 2.59343ZM124.727 22.4C123.92 22.4374 123.116 22.2779 122.386 21.9355C121.656 21.5931 121.022 21.0783 120.54 20.4364C119.551 19.0785 118.826 17.5499 118.402 15.929C117.651 13.1956 117.704 11.3184 118.562 10.1904C118.877 9.81134 119.279 9.51167 119.733 9.31594C120.188 9.12021 120.684 9.034 121.179 9.06438C122.013 9.01312 122.846 9.17076 123.603 9.52271C124.359 9.87467 125.013 10.4096 125.505 11.0781C126.526 12.4479 127.305 13.9794 127.808 15.6071C128.107 16.6232 128.314 17.6633 128.429 18.7154C128.546 19.598 128.327 20.492 127.815 21.2238C127.286 21.984 126.276 22.379 124.82 22.3979L124.727 22.4ZM121.284 9.84337H121.194C120.82 9.81245 120.443 9.87027 120.096 10.012C119.748 10.1538 119.44 10.3754 119.196 10.6586C118.503 11.5644 118.492 13.2722 119.167 15.7255C119.564 17.2527 120.246 18.693 121.177 19.9724C121.594 20.5302 122.147 20.974 122.785 21.2622C123.423 21.5504 124.124 21.6736 124.823 21.6203C126.012 21.6056 126.807 21.3234 127.184 20.7841C127.592 20.2085 127.765 19.5007 127.667 18.8039C127.559 17.7972 127.362 16.8018 127.077 15.8294C126.596 14.2882 125.855 12.8386 124.886 11.5421C124.476 10.9849 123.931 10.5379 123.302 10.2415C122.674 9.94512 121.98 9.80875 121.284 9.84476V9.84337Z" fill="#FFFDFF"/>
</g>
<g style="mix-blend-mode:overlay">
<path d="M153.417 29.8324L152.808 29.7871C150.078 29.5934 148.747 29.5119 146.026 29.3781L145.763 29.3635L142.262 19.5452C137.43 13.8853 132.678 8.21079 128.155 2.68328L127.623 2.03528L128.468 2.052C131.463 2.11192 132.928 2.1593 135.926 2.29099H136.102L136.213 2.43035C138.709 5.51706 140.042 7.14612 142.461 10.0586C142.8 7.46664 142.974 5.93652 143.263 3.10274L143.302 2.72718L143.683 2.75574C146.692 2.97801 148.158 3.10413 151.173 3.40862L151.56 3.44903L151.524 3.83156C151.041 9.09222 150.398 14.4177 149.591 19.6923L153.417 29.8324ZM146.328 28.6152C148.677 28.7322 149.996 28.8089 152.253 28.9691L148.775 19.787L148.792 19.6867C149.587 14.5215 150.23 9.29916 150.704 4.14372C148.087 3.88313 146.633 3.75631 144.016 3.56052C143.716 6.46119 143.533 8.00594 143.132 11.0495L143.01 11.9553L142.433 11.2585C139.674 7.93696 138.326 6.30163 135.714 3.0686C133.134 2.94875 131.691 2.89649 129.3 2.84632C133.673 8.18362 138.241 13.6463 142.912 19.1063L142.958 19.1613L146.328 28.6152Z" fill="#FFFDFF"/>
</g>
<g style="mix-blend-mode:overlay">
<path d="M171.094 31.6378H171.048C167.381 31.1598 163.66 30.732 159.995 30.392L159.754 30.3704L156.27 21.7025L156.91 21.7624C158.62 21.9248 159.456 22.0014 161.177 22.1979C162.322 22.363 162.626 22.2383 162.699 22.1979C162.699 22.0878 162.525 21.5785 160.684 20.1076C157.4 17.3267 153.465 13.5293 152.08 8.74248C151.517 6.79151 151.597 5.39796 152.298 4.55556C152.619 4.2299 153.019 3.9907 153.459 3.8606C153.9 3.73051 154.366 3.71381 154.815 3.8121C158.249 4.19741 161.732 4.65589 165.168 5.18196L165.379 5.21331L169.392 13.9627L168.667 13.8554C166.758 13.5683 165.825 13.4373 163.917 13.1788C163.495 13.0618 163.052 13.0437 162.622 13.1259C162.656 13.2548 162.878 13.7453 164.338 14.9647L165.331 15.897C168.399 18.7537 171.54 21.7053 173.388 25.8469C174.27 27.8223 174.408 29.2709 173.806 30.2805C173.508 30.7034 173.11 31.048 172.647 31.2843C172.184 31.5205 171.67 31.6414 171.149 31.6364L171.094 31.6378ZM160.307 29.6339C163.892 29.9711 167.525 30.3801 171.111 30.856C171.501 30.8638 171.887 30.7794 172.238 30.6097C172.588 30.4401 172.892 30.1901 173.126 29.8805C173.583 29.1141 173.428 27.8599 172.664 26.1549C170.881 22.1589 167.789 19.261 164.797 16.4586L163.819 15.543C162.185 14.1773 161.625 13.3739 161.903 12.7859C162.181 12.1978 163.198 12.2647 164.044 12.4103C165.689 12.6326 166.612 12.7587 168.077 12.9796L164.838 5.91845C161.48 5.40911 158.073 4.96178 154.724 4.58412C154.403 4.50538 154.067 4.50788 153.748 4.59142C153.428 4.67495 153.134 4.83682 152.894 5.06211C152.372 5.67179 152.351 6.86955 152.834 8.53414C154.16 13.1203 157.992 16.8125 161.183 19.5146C163.051 21.0113 163.703 21.8837 163.42 22.5205C163.191 23.0417 162.49 23.1755 161.075 22.9727C159.601 22.8125 158.775 22.7337 157.472 22.602L160.307 29.6339Z" fill="#FFFDFF"/>
</g>
</g>
<g style="mix-blend-mode:overlay">
<path style="mix-blend-mode:overlay" d="M153.521 2.01299L153.538 1.83601L151.363 1.61582C148.358 1.31482 146.809 1.17825 143.823 0.958068L141.661 0.79781L141.444 2.93064C141.337 3.96396 141.248 4.82238 141.162 5.62298C140.092 4.32001 139.055 3.04491 137.649 1.319L137.017 0.544881L136.022 0.480081C133.039 0.340726 131.495 0.288467 128.513 0.241087L123.73 0.143538L124.305 0.861217C122.632 0.270421 120.866 -0.0198172 119.09 0.00418317C117.243 -0.0140493 115.419 0.411797 113.775 1.24514C112.227 2.06222 110.963 3.32315 110.151 4.8628C110.018 5.10179 109.909 5.36517 109.788 5.62577C109.114 4.44209 108.189 3.41616 107.078 2.61779C105.166 1.37345 102.876 0.825649 100.601 1.06816C96.9024 1.35732 93.1113 1.74264 89.1492 2.22759V2.21366L87.0182 2.49237C85.4258 2.7014 84.343 2.84633 83.0969 3.02819L81.6833 3.22398L80.9371 3.35079L78.7624 3.68107L79.3059 7.43041C78.7765 6.72946 78.2112 5.97415 77.5691 5.11364L76.7525 4.01831L75.3973 4.2573C72.9981 4.67536 71.7562 4.90321 69.357 5.37214L67.3759 5.76164L67.7941 9.8963C66.9723 9.13713 66.0242 8.52424 64.9915 8.08469C62.7108 7.17192 60.1899 7.02818 57.8184 7.67568C55.9502 8.11672 54.1926 8.93043 52.6532 10.067C51.1337 11.2044 49.8534 12.6245 48.884 14.2477C48.4072 15.0402 47.9952 15.8692 47.652 16.7268C46.7006 15.3047 45.3322 14.2049 43.7307 13.5753C41.4409 12.7761 38.9392 12.805 36.6689 13.6568C34.8174 14.2583 33.0964 15.1982 31.5951 16.4279C30.5527 17.2852 29.6175 18.2627 28.8094 19.3397L28.9713 16.4704L25.7773 17.666C23.4653 18.5245 22.2742 18.9816 19.9791 19.8957L19.0492 20.2643L18.7112 21.1994C18.1893 22.6501 17.6602 24.1087 17.1237 25.5751C34.5526 25.9291 57.1525 24.3795 81.6312 20.8217C113.136 16.223 140.688 9.29359 157.636 2.31887C156.757 2.21203 155.886 2.11077 155.025 2.01508C154.526 1.95255 154.021 1.95255 153.522 2.01508L153.521 2.01299Z" fill="url(#paint8_linear_2_22)"/>
<path style="mix-blend-mode:overlay" d="M15.5651 25.5236L15.3236 24.5529L14.6738 22.0446L12.2802 23.0702C10.7145 23.7419 9.13965 24.4331 7.58099 25.1389C10.0851 25.3201 12.7491 25.4469 15.5651 25.5236Z" fill="url(#paint9_linear_2_22)"/>
</g>
<defs>
<linearGradient id="paint0_linear_2_22" x1="2.73962" y1="29.2775" x2="173.789" y2="29.2775" gradientUnits="userSpaceOnUse">
<stop stop-color="#FFAA00"/>
<stop offset="1" stop-color="#D30D8D"/>
</linearGradient>
<linearGradient id="paint1_linear_2_22" x1="2.73343" y1="29.2843" x2="173.835" y2="29.2843" gradientUnits="userSpaceOnUse">
<stop stop-color="#FFAA00"/>
<stop offset="1" stop-color="#D30D8D"/>
</linearGradient>
<linearGradient id="paint2_linear_2_22" x1="2.69973" y1="29.2704" x2="173.885" y2="29.2704" gradientUnits="userSpaceOnUse">
<stop stop-color="#FFAA00"/>
<stop offset="1" stop-color="#D30D8D"/>
</linearGradient>
<linearGradient id="paint3_linear_2_22" x1="2.73655" y1="29.269" x2="173.776" y2="29.269" gradientUnits="userSpaceOnUse">
<stop stop-color="#FFAA00"/>
<stop offset="1" stop-color="#D30D8D"/>
</linearGradient>
<linearGradient id="paint4_linear_2_22" x1="2.72861" y1="29.2757" x2="173.764" y2="29.2757" gradientUnits="userSpaceOnUse">
<stop stop-color="#FFAA00"/>
<stop offset="1" stop-color="#D30D8D"/>
</linearGradient>
<linearGradient id="paint5_linear_2_22" x1="2.74433" y1="29.2904" x2="173.781" y2="29.2904" gradientUnits="userSpaceOnUse">
<stop stop-color="#FFAA00"/>
<stop offset="1" stop-color="#D30D8D"/>
</linearGradient>
<linearGradient id="paint6_linear_2_22" x1="2.73637" y1="29.2642" x2="173.787" y2="29.2642" gradientUnits="userSpaceOnUse">
<stop stop-color="#FFAA00"/>
<stop offset="1" stop-color="#D30D8D"/>
</linearGradient>
<linearGradient id="paint7_linear_2_22" x1="2.72533" y1="29.2688" x2="173.782" y2="29.2688" gradientUnits="userSpaceOnUse">
<stop stop-color="#FFAA00"/>
<stop offset="1" stop-color="#D30D8D"/>
</linearGradient>
<linearGradient id="paint8_linear_2_22" x1="82.6027" y1="25.6244" x2="82.6027" y2="0.00280762" gradientUnits="userSpaceOnUse">
<stop stop-color="white"/>
<stop offset="0.05" stop-color="white" stop-opacity="0.839"/>
<stop offset="0.11" stop-color="white" stop-opacity="0.69"/>
<stop offset="0.17" stop-color="white" stop-opacity="0.561"/>
<stop offset="0.25" stop-color="white" stop-opacity="0.451"/>
<stop offset="0.32" stop-color="white" stop-opacity="0.361"/>
<stop offset="0.42" stop-color="white" stop-opacity="0.29"/>
<stop offset="0.52" stop-color="white" stop-opacity="0.239"/>
<stop offset="0.67" stop-color="white" stop-opacity="0.212"/>
<stop offset="1" stop-color="white" stop-opacity="0.2"/>
</linearGradient>
<linearGradient id="paint9_linear_2_22" x1="82.5833" y1="25.6105" x2="82.5833" y2="-0.0123049" gradientUnits="userSpaceOnUse">
<stop stop-color="white"/>
<stop offset="0.05" stop-color="white" stop-opacity="0.839"/>
<stop offset="0.11" stop-color="white" stop-opacity="0.69"/>
<stop offset="0.17" stop-color="white" stop-opacity="0.561"/>
<stop offset="0.25" stop-color="white" stop-opacity="0.451"/>
<stop offset="0.32" stop-color="white" stop-opacity="0.361"/>
<stop offset="0.42" stop-color="white" stop-opacity="0.29"/>
<stop offset="0.52" stop-color="white" stop-opacity="0.239"/>
<stop offset="0.67" stop-color="white" stop-opacity="0.212"/>
<stop offset="1" stop-color="white" stop-opacity="0.2"/>
</linearGradient>
</defs>
</svg>
